<svg version="1.0" xmlns="http://www.w3.org/2000/svg"
 width="512.000000pt" height="512.000000pt" viewBox="0 0 512.000000 512.000000"
 preserveAspectRatio="xMidYMid meet">

<g transform="translate(0.000000,512.000000) scale(0.100000,-0.100000)"
fill="#b05d1a" stroke="none">
<path d="M3950 4717 c-223 -222 -483 -479 -577 -572 -132 -128 -177 -179 -189
-212 -11 -29 -14 -50 -8 -63 5 -10 161 -168 347 -351 l338 -331 44 4 c29 4 57
16 82 36 21 17 284 277 586 579 512 513 547 551 547 583 0 32 -25 59 -348 382
-322 323 -350 348 -382 348 -32 0 -63 -28 -440 -403z"/>
<path d="M2863 4237 c-299 -298 -323 -325 -323 -357 0 -19 12 -122 27 -227
l28 -193 -173 -173 c-164 -165 -172 -175 -172 -213 0 -38 9 -48 393 -431 381
-382 393 -393 431 -393 37 0 48 9 215 175 l176 174 185 -29 c286 -46 211 -83
587 293 316 316 323 323 323 363 0 35 -7 46 -53 92 -45 45 -58 52 -91 52 -36
0 -48 -9 -205 -165 -101 -99 -181 -170 -203 -180 -53 -22 -153 -19 -208 6 -65
29 -730 693 -765 763 -30 59 -34 155 -10 214 10 22 81 102 180 203 157 158
165 168 165 206 0 34 -7 46 -53 91 -45 45 -58 52 -92 52 -38 0 -48 -8 -362
-323z m174 -1190 c105 -105 123 -127 123 -154 0 -49 -38 -87 -85 -86 -34 1
-49 12 -156 119 -64 64 -119 127 -122 140 -5 29 16 79 40 93 10 6 31 11 48 11
24 0 50 -20 152 -123z"/>
<path d="M1845 2960 c-170 -27 -314 -49 -320 -50 -5 0 -191 -181 -412 -402
-397 -396 -403 -403 -403 -443 0 -39 6 -46 663 -702 655 -656 663 -663 702
-663 39 0 47 7 442 403 l402 402 51 339 c29 191 49 350 45 365 -7 29 -731 762
-777 787 -37 19 -42 19 -393 -36z m57 -1048 c259 -259 278 -280 278 -313 0
-56 -52 -98 -103 -85 -12 3 -147 130 -299 284 -306 306 -306 306 -249 363 21
20 39 29 63 29 29 0 59 -26 310 -278z"/>
<path d="M835 1602 c-36 -22 -816 -814 -829 -842 -5 -10 -5 -31 -2 -47 9 -34
655 -686 698 -704 15 -6 38 -9 50 -6 13 4 208 192 435 419 362 363 412 418
418 451 4 21 4 47 -1 57 -5 10 -158 169 -340 354 -307 312 -333 336 -365 336
-19 0 -48 -8 -64 -18z"/>
</g>
</svg>